# xmcd
#
# Track frame offsets: 
#        150
#        26474
#        43645
#        60948
#        87648
#        116894
#        134441
#        158522
#        183045
#        196314
#        225177
#        239926
#        258145
#
# Disc length: 3763 seconds
#
# Revision: 0
# Processed by: cddbd v1.5.2PL0 Copyright (c) Steve Scherf et al.
# Submitted via: ExactAudioCopy v1.3
#
DISCID=a30eb10d
DTITLE=Fillmore Slim - Son of the Seven Sisters
DYEAR=2019
DGENRE=Blues
TTITLE0=Son of the Seven Sisters
TTITLE1=Broke, Baby
TTITLE2=I’m a Playboy
TTITLE3=Jody Must Be in My Business
TTITLE4=I’m a Badd Brotha Foya
TTITLE5=Emma Lou, Queen of the Homeless
TTITLE6=Rock Star
TTITLE7=Last Night
TTITLE8=Dedicated to Johnny Guitar Watson
TTITLE9=Mary Sue
TTITLE10=Legend in My Own Time
TTITLE11=Fast Gun Annie
TTITLE12=Little Bluebird
EXTD=
EXTT0=
EXTT1=
EXTT2=
EXTT3=
EXTT4=
EXTT5=
EXTT6=
EXTT7=
EXTT8=
EXTT9=
EXTT10=
EXTT11=
EXTT12=
PLAYORDER=
